<svg width="100" height="641" viewBox="0 0 100 641" fill="none" xmlns="http://www.w3.org/2000/svg">
<path d="M80.5 1C80.5 1 65.3016 45.9809 67 75.5C68.9046 108.604 92.9849 122.857 94 156C95.1176 192.491 66.0175 209.005 67 245.5C67.9023 279.017 90.0479 293.705 94 327C100.202 379.25 62.6846 406.561 67 459C69.0323 483.696 91.9983 496.801 94 521.5C95.2145 536.486 80.5 559.5 80.5 559.5" stroke="#DEDAB4" stroke-linecap="round" stroke-dasharray="2 2"/>
<g clip-path="url(#clip0_107_223)">
<path d="M91.4166 560.833C90.6666 558.625 88.5416 557.167 86.1666 557.167C86.0416 557.167 85.9166 557.167 85.7916 557.167H81.6666L80.375 553.125C79.7916 550.625 77.5416 548.833 75 548.833C72.4583 548.833 70.2083 550.625 69.625 553.167L68.3333 557.167H64.25C64.125 557.167 64 557.167 63.875 557.167C61.5 557.167 59.375 558.625 58.625 560.833C57.8333 563.167 58.7916 565.708 60.9583 567L64.5833 569.167L62.9166 574.333C61.9583 576.75 62.75 579.542 64.7916 581.083C65.75 581.792 66.9166 582.167 68.0416 582.167C69.3333 582.167 70.5833 581.708 71.625 580.833L75 577.917L78.375 580.833C79.4166 581.708 80.6666 582.167 81.9583 582.167C83.0833 582.167 84.25 581.792 85.2083 581.083C87.2916 579.542 88.0416 576.75 87.0833 574.333L85.4583 569.167L89.0833 567C91.2083 565.708 92.1666 563.167 91.4166 560.833ZM75 569.667C72.7083 569.667 70.8333 567.792 70.8333 565.5C70.8333 563.208 72.7083 561.333 75 561.333C77.2916 561.333 79.1666 563.208 79.1666 565.5C79.1666 567.792 77.2916 569.667 75 569.667Z" fill="#DEDAB4"/>
<path d="M64.5833 590.5H60.0416C59.25 588.25 58 586.125 56.1666 584.292C54.3333 582.458 52.25 581.25 50 580.458V575.917C50 574.75 49.0833 573.833 47.9166 573.833C46.75 573.833 45.8333 574.75 45.8333 575.917V579.583C45.375 579.542 44.875 579.458 44.4166 579.458C40.1666 579.458 35.875 581.083 32.625 584.333C31.9583 585 31.375 585.75 30.8333 586.542L25 584.333C18.5 582.042 11.3333 585.458 9.04164 591.917C7.91664 595.042 8.08331 598.458 9.54164 601.458C10.5 603.458 11.9583 605.083 13.7083 606.292C12.125 611.917 13.4583 618.167 17.875 622.583C22.2916 627 28.5833 628.333 34.1666 626.75C35.375 628.5 37 629.958 39 630.917C40.75 631.75 42.5416 632.167 44.375 632.167C45.7916 632.167 47.2083 631.917 48.5833 631.458C55.0833 629.167 58.5 622 56.1666 615.417L54 609.708C54.75 609.167 55.5 608.583 56.2083 607.917C59.8333 604.292 61.375 599.417 60.9583 594.708H64.625C65.7917 594.708 66.7083 593.792 66.7083 592.625C66.6667 591.417 65.75 590.5 64.5833 590.5ZM19.4583 600.042C18.4166 599.667 17.5833 598.917 17.0833 597.917C16.5833 596.917 16.5416 595.792 16.9166 594.75C17.7083 592.583 20.0833 591.458 22.1666 592.208L35.3333 597.167C30.5416 599.667 24.375 601.792 19.4583 600.042ZM45.7916 623.583C44.75 623.958 43.625 623.917 42.625 623.417C41.625 622.958 40.875 622.083 40.5 621.042C38.75 616.125 40.875 610 43.4166 605.208L48.3333 618.25C49.0833 620.417 47.9583 622.833 45.7916 623.583ZM50.8333 601.333L48.2916 594.625C48.2916 594.583 48.25 594.542 48.2083 594.5C48.125 594.333 48.0416 594.167 47.9583 594C47.875 593.833 47.7916 593.708 47.6666 593.542C47.5416 593.417 47.4166 593.292 47.2916 593.167C47.1666 593.042 47.0416 592.917 46.9166 592.792C46.7916 592.667 46.625 592.583 46.4583 592.5C46.2916 592.417 46.1666 592.292 45.9583 592.25C45.9166 592.25 45.875 592.208 45.8333 592.167L39.1666 589.667C40.6666 588.458 42.4583 587.75 44.4166 587.75C46.625 587.75 48.75 588.625 50.2916 590.208C53.3333 593.25 53.5 598.042 50.8333 601.333Z" fill="#DEDAB4"/>
</g>
<defs>
<clipPath id="clip0_107_223">
<rect width="100" height="100" fill="white" transform="translate(0 540.5)"/>
</clipPath>
</defs>
</svg>
